<?xml version="1.0" encoding="UTF-8"?>
<svg width="340px" height="16px" viewBox="0 0 340 16" version="1.1" xmlns="http://www.w3.org/2000/svg" xmlns:xlink="http://www.w3.org/1999/xlink">
    <!-- Generator: Sketch 46.2 (44496) - http://www.bohemiancoding.com/sketch -->
    <title>Logo-Footer</title>
    <desc>Created with Sketch.</desc>
    <defs></defs>
    <g id="Page-2" stroke="none" stroke-width="1" fill="none" fill-rule="evenodd">
        <g id="Group-9" transform="translate(-754.000000, -202.000000)" fill="#FFFFFF">
            <g id="Logo-Footer">
                <g transform="translate(753.859375, 202.763158)">
                    <g id="Group-6-Copy-2">
                        <ellipse id="Oval-Copy" cx="173.402985" cy="7.07407407" rx="2.55223881" ry="2.55555556"></ellipse>
                        <path d="M17.9018806,3.78848148 L15.7690597,4.55259259 C14.3341272,3.02436273 12.3252517,2.26025926 9.74237313,2.26025926 C7.78564693,2.26025926 6.190939,2.76313077 4.95820149,3.76888889 C3.72546399,4.774647 3.10910448,6.05468359 3.10910448,7.60903704 C3.10910448,9.21563766 3.71894166,10.5120012 4.93863433,11.4981667 C6.15832699,12.4843321 7.80521351,12.9774074 9.87934328,12.9774074 C12.3839528,12.9774074 14.3536943,12.2002423 15.7886269,10.6458889 L17.8040448,11.7626667 C16.7865472,12.9512899 15.6353572,13.8100899 14.3504403,14.3390926 C13.0655234,14.8680952 11.5295164,15.1325926 9.74237313,15.1325926 C7.2377636,15.1325926 5.15714261,14.5056359 3.50044776,13.2517037 C1.60894577,11.8149064 0.663208955,9.93403632 0.663208955,7.60903704 C0.663208955,5.32322314 1.62199041,3.45541466 3.53958209,2.00555556 C5.20932178,0.738561566 7.27689812,0.105074074 9.74237313,0.105074074 C13.29057,0.105074074 16.0103786,1.33286427 17.9018806,3.78848148 Z M39.772015,14.7407407 L37.2087165,14.7407407 L35.5650747,11.5667407 L26.0358657,11.5667407 L24.3922239,14.7407407 L21.8289254,14.7407407 L29.3231493,0.555703704 L32.2777911,0.555703704 L39.772015,14.7407407 Z M34.410612,9.43114815 L30.8102538,2.57374074 L27.1903284,9.43114815 L34.410612,9.43114815 Z M53.7565822,0.555703704 C56.2220572,0.555703704 58.1754929,1.21204899 59.6169478,2.52475926 C61.0584028,3.83746953 61.7791195,5.59751983 61.7791195,7.80496296 C61.7791195,9.82954099 61.0160077,11.5144871 59.4897613,12.8598519 C58.0678736,14.113784 56.3068464,14.7407407 54.2066269,14.7407407 L44.794821,14.7407407 L44.794821,0.555703704 L53.7565822,0.555703704 Z M54.4022986,12.6051481 C55.8111414,12.6051481 56.9688537,12.1512576 57.8754702,11.243463 C58.7820867,10.3356683 59.2353881,9.1699207 59.2353881,7.74618519 C59.2353881,6.23101712 58.7494751,5.00975772 57.7776344,4.08237037 C56.8057937,3.15498302 55.5306796,2.6912963 53.9522538,2.6912963 L47.1428807,2.6912963 L47.1428807,12.6051481 L54.4022986,12.6051481 Z M82.9839702,14.7407407 L68.1520598,14.7407407 L68.1520598,0.555703704 L82.4360896,0.555703704 L82.4360896,2.6912963 L70.5001195,2.6912963 L70.5001195,6.31592593 L78.7965971,6.31592593 L78.7965971,8.45151852 L70.5001195,8.45151852 L70.5001195,12.6051481 L82.9839702,12.6051481 L82.9839702,14.7407407 Z M105.128045,14.7407407 L102.232105,14.7407407 L91.3918957,3.10274074 L91.3918957,14.7407407 L89.043836,14.7407407 L89.043836,0.555703704 L91.9593434,0.555703704 L102.779985,12.1937037 L102.779985,0.555703704 L105.128045,0.555703704 L105.128045,14.7407407 Z M128.915761,3.78848148 L126.78294,4.55259259 C125.348008,3.02436273 123.339132,2.26025926 120.756254,2.26025926 C118.799528,2.26025926 117.20482,2.76313077 115.972082,3.76888889 C114.739345,4.774647 114.122985,6.05468359 114.122985,7.60903704 C114.122985,9.21563766 114.732822,10.5120012 115.952515,11.4981667 C117.172208,12.4843321 118.819094,12.9774074 120.893224,12.9774074 C123.397834,12.9774074 125.367575,12.2002423 126.802508,10.6458889 L128.817926,11.7626667 C127.800428,12.9512899 126.649238,13.8100899 125.364321,14.3390926 C124.079404,14.8680952 122.543397,15.1325926 120.756254,15.1325926 C118.251644,15.1325926 116.171023,14.5056359 114.514329,13.2517037 C112.622827,11.8149064 111.67709,9.93403632 111.67709,7.60903704 C111.67709,5.32322314 112.635871,3.45541466 114.553463,2.00555556 C116.223203,0.738561566 118.290779,0.105074074 120.756254,0.105074074 C124.304451,0.105074074 127.024259,1.33286427 128.915761,3.78848148 Z M150.198881,14.7407407 L135.36697,14.7407407 L135.36697,0.555703704 L149.651,0.555703704 L149.651,2.6912963 L137.71503,2.6912963 L137.71503,6.31592593 L146.011508,6.31592593 L146.011508,8.45151852 L137.71503,8.45151852 L137.71503,12.6051481 L150.198881,12.6051481 L150.198881,14.7407407 Z" id="CADENCE"></path>
                        <path d="M216.311224,14.7407407 L213.747925,14.7407407 L212.104284,11.5667407 L202.575075,11.5667407 L200.931433,14.7407407 L198.368134,14.7407407 L205.862358,0.555703704 L208.817,0.555703704 L216.311224,14.7407407 Z M210.949821,9.43114815 L207.349463,2.57374074 L203.729537,9.43114815 L210.949821,9.43114815 Z M235.578925,0.555703704 L227.947731,14.7407407 L225.247463,14.7407407 L217.616269,0.555703704 L220.238269,0.555703704 L226.597597,12.3896296 L232.956925,0.555703704 L235.578925,0.555703704 Z M257.566463,7.62862963 C257.566463,9.95362891 256.614204,11.834499 254.709657,13.2712963 C253.039917,14.5252285 250.965818,15.1521852 248.487299,15.1521852 C245.982689,15.1521852 243.895546,14.5186977 242.225806,13.2517037 C240.321259,11.8149064 239.369,9.94056712 239.369,7.62862963 C239.369,5.35587753 240.334304,3.48806904 242.26494,2.02514815 C243.96077,0.745092365 246.034868,0.105074074 248.487299,0.105074074 C250.952774,0.105074074 253.02035,0.745092365 254.69009,2.02514815 C256.607681,3.48806904 257.566463,5.35587753 257.566463,7.62862963 Z M255.120567,7.62862963 C255.120567,5.96978183 254.416156,4.62443726 253.007313,3.59255556 C251.794143,2.70435358 250.287487,2.26025926 248.487299,2.26025926 C246.517528,2.26025926 244.913036,2.76639617 243.673776,3.77868519 C242.434516,4.7909742 241.814896,6.07427618 241.814896,7.62862963 C241.814896,9.23523026 242.421472,10.5315938 243.634642,11.5177593 C244.847812,12.5039247 246.465348,12.997 248.487299,12.997 C250.496204,12.997 252.103957,12.5006593 253.310605,11.507963 C254.517252,10.5152666 255.120567,9.22216846 255.120567,7.62862963 Z M280.610627,3.78848148 L278.477806,4.55259259 C277.042874,3.02436273 275.033998,2.26025926 272.45112,2.26025926 C270.494393,2.26025926 268.899685,2.76313077 267.666948,3.76888889 C266.43421,4.774647 265.817851,6.05468359 265.817851,7.60903704 C265.817851,9.21563766 266.427688,10.5120012 267.647381,11.4981667 C268.867073,12.4843321 270.51396,12.9774074 272.58809,12.9774074 C275.092699,12.9774074 277.062441,12.2002423 278.497373,10.6458889 L280.512791,11.7626667 C279.495294,12.9512899 278.344104,13.8100899 277.059187,14.3390926 C275.77427,14.8680952 274.238263,15.1325926 272.45112,15.1325926 C269.94651,15.1325926 267.865889,14.5056359 266.209194,13.2517037 C264.317692,11.8149064 263.371955,9.93403632 263.371955,7.60903704 C263.371955,5.32322314 264.330737,3.45541466 266.248328,2.00555556 C267.918068,0.738561566 269.985644,0.105074074 272.45112,0.105074074 C275.999316,0.105074074 278.719125,1.33286427 280.610627,3.78848148 Z M302.480761,14.7407407 L299.917463,14.7407407 L298.273821,11.5667407 L288.744612,11.5667407 L287.10097,14.7407407 L284.537672,14.7407407 L292.031896,0.555703704 L294.986537,0.555703704 L302.480761,14.7407407 Z M297.119358,9.43114815 L293.519,2.57374074 L289.899075,9.43114815 L297.119358,9.43114815 Z M319.224299,2.6912963 L312.45406,2.6912963 L312.45406,14.7407407 L310.106,14.7407407 L310.106,2.6912963 L303.335761,2.6912963 L303.335761,0.555703704 L319.224299,0.555703704 L319.224299,2.6912963 Z M336.90706,3.88644444 C334.80684,2.81537736 332.667519,2.27985185 330.48903,2.27985185 C329.041053,2.27985185 327.932258,2.44965262 327.162612,2.78925926 C326.392966,3.1288659 326.008149,3.59908342 326.008149,4.19992593 C326.008149,4.82689202 326.419056,5.28404795 327.240881,5.57140741 C327.827899,5.78039611 328.78668,5.92407368 330.117254,6.00244444 C332.07398,6.13306238 333.3654,6.23755516 333.991552,6.31592593 C335.765651,6.55103821 337.076638,6.98860174 337.924552,7.62862963 C338.772467,8.26865752 339.196418,9.17643857 339.196418,10.352 C339.196418,11.8541063 338.531141,13.0165885 337.200567,13.8394815 C335.869994,14.6623745 333.958953,15.0738148 331.467388,15.0738148 C327.853967,15.0738148 325.042846,14.2770574 323.03394,12.6835185 L324.325373,10.978963 C326.542996,12.3373895 328.930167,13.0165926 331.486955,13.0165926 C333.14365,13.0165926 334.428548,12.7880146 335.341687,12.3308519 C336.215691,11.8867509 336.652687,11.2793866 336.652687,10.5087407 C336.652687,9.60747698 336.078722,9.00664348 334.930776,8.70622222 C334.330714,8.5494807 332.713178,8.38621073 330.07812,8.21640741 C327.743093,8.05966588 326.10599,7.74618754 325.166761,7.27596296 C324.070995,6.72736763 323.52312,5.80652498 323.52312,4.51340741 C323.52312,3.18110445 324.146001,2.12964583 325.391784,1.359 C326.637566,0.588354171 328.395332,0.203037037 330.665135,0.203037037 C333.717627,0.203037037 336.274378,0.901832518 338.335463,2.29944444 L336.90706,3.88644444 Z" id="AVOCATS"></path>
                    </g>
                </g>
            </g>
        </g>
    </g>
</svg>