<?xml version="1.0" encoding="UTF-8"?>
<svg width="312px" height="70px" viewBox="0 0 312 70" version="1.1" xmlns="http://www.w3.org/2000/svg" xmlns:xlink="http://www.w3.org/1999/xlink">
    <!-- Generator: Sketch 46.2 (44496) - http://www.bohemiancoding.com/sketch -->
    <title>Logo-Header</title>
    <desc>Created with Sketch.</desc>
    <defs></defs>
    <g id="Logo" stroke="none" stroke-width="1" fill="none" fill-rule="evenodd">
        <g id="Accueil" transform="translate(-360.000000, -74.000000)">
            <g id="Logo-Header" transform="translate(360.000000, 74.000000)">
                <circle id="Oval-Copy" fill="#33545C" cx="158.689655" cy="35.862069" r="2.68965517"></circle>
                <path d="M18.7191677,3.95558153 L16.4031753,4.7761543 C14.8450075,3.13500056 12.6636053,2.314436 9.85890329,2.314436 C7.73412903,2.314436 6.00246398,2.85446567 4.66385619,3.9345412 C3.3252484,5.01461674 2.65595455,6.38923771 2.65595455,8.05844535 C2.65595455,9.78376082 3.31816593,11.1759152 4.64260855,12.2349503 C5.96705118,13.2939854 7.75537602,13.823495 10.0076367,13.823495 C12.7273478,13.823495 14.8662551,12.9889037 16.4244229,11.3196961 L18.6129295,12.5189947 C17.5080469,13.7954476 16.2579901,14.7177061 14.8627217,15.2857978 C13.4674532,15.8538895 11.7995305,16.137931 9.85890329,16.137931 C7.13919223,16.137931 4.87988282,15.4646473 3.08090728,14.1180596 C1.02695882,12.5750946 0,10.5552433 0,8.05844535 C0,5.60372823 1.04112377,3.59790375 3.12340255,2.04091175 C4.93654326,0.680297113 7.18168772,0 9.85890329,0 C13.7118273,0 16.6652192,1.31851399 18.7191677,3.95558153 Z M43.760893,15.7171245 L40.9774526,15.7171245 L39.1926512,12.3085915 L28.8450523,12.3085915 L27.0602508,15.7171245 L24.2768104,15.7171245 L32.4146552,0.483927528 L35.6230483,0.483927528 L43.760893,15.7171245 Z M37.9390406,10.0151958 L34.0294755,2.65108124 L30.0986628,10.0151958 L37.9390406,10.0151958 Z M88.9945868,15.7171245 L74.457949,15.7171245 L74.457949,0.483927528 L88.399653,0.483927528 L88.399653,2.7773232 L77.0076653,2.7773232 L77.0076653,6.66978375 L86.0166632,6.66978375 L86.0166632,8.96317943 L77.0076653,8.96317943 L77.0076653,13.4237288 L88.9945868,13.4237288 L88.9945868,15.7171245 Z M115.90285,15.7171245 L112.758199,15.7171245 L100.987009,3.21917008 L100.987009,15.7171245 L98.4372925,15.7171245 L98.4372925,0.483927528 L101.60319,0.483927528 L113.353133,12.9818819 L113.353133,0.483927528 L115.90285,0.483927528 L115.90285,15.7171245 Z M143.026843,3.95558153 L140.710851,4.7761543 C139.152683,3.13500056 136.971281,2.314436 134.166579,2.314436 C132.041805,2.314436 130.31014,2.85446567 128.971532,3.9345412 C127.632924,5.01461674 126.96363,6.38923771 126.96363,8.05844535 C126.96363,9.78376082 127.625842,11.1759152 128.950284,12.2349503 C130.274727,13.2939854 132.063052,13.823495 134.315312,13.823495 C137.035023,13.823495 139.173931,12.9889037 140.732099,11.3196961 L142.920605,12.5189947 C141.815723,13.7954476 140.565666,14.7177061 139.170397,15.2857978 C137.775129,15.8538895 136.107206,16.137931 134.166579,16.137931 C131.446868,16.137931 129.187558,15.4646473 127.388583,14.1180596 C125.334634,12.5750946 124.307676,10.5552433 124.307676,8.05844535 C124.307676,5.60372823 125.348799,3.59790375 127.431078,2.04091175 C129.244219,0.680297113 131.489363,0 134.166579,0 C138.019503,0 140.972895,1.31851399 143.026843,3.95558153 Z M165.862069,15.7171245 L151.325431,15.7171245 L151.325431,0.483927528 L165.267135,0.483927528 L165.267135,2.7773232 L153.875148,2.7773232 L153.875148,6.66978375 L162.884145,6.66978375 L162.884145,8.96317943 L153.875148,8.96317943 L153.875148,13.4237288 L165.862069,13.4237288 L165.862069,15.7171245 Z" id="CADENCE" fill="#33545C"></path>
                <path d="M52.9160238,15.2142147 L52.9160238,15.2413793 L50.2068966,15.2413793 L50.2068966,0.00807249299 L52.1378234,0.00807249299 L52.1378234,-1.11022302e-16 L57.7036395,0 C60.3592374,0 62.4633105,0.703965603 64.015922,2.11191793 C65.5685335,3.51987025 66.3448276,5.40761881 66.3448276,7.77522024 C66.3448276,9.946689 65.5228691,11.7538843 63.8789276,13.1968603 C62.3473923,14.54177 60.4505651,15.2142147 58.1883891,15.2142147 L52.9160238,15.2142147 Z M52.9160238,2.29053785 L52.9160238,12.9236769 L58.3991498,12.9236769 C59.9166343,12.9236769 61.1636225,12.4368549 62.1401519,11.4631963 C63.1166813,10.4895377 63.6049387,9.23921078 63.6049387,7.71217791 C63.6049387,6.08707871 63.0815549,4.77721236 62.0347716,3.78253957 C60.9879883,2.78786679 59.6145449,2.29053785 57.9144002,2.29053785 L52.9160238,2.29053785 Z" id="Combined-Shape" fill="#2B5864"></path>
                <path d="M169.988778,69.4897629 L167.221908,69.4897629 L165.447732,66.0856681 L155.161736,66.0856681 L153.387559,69.4897629 L150.62069,69.4897629 L158.710088,54.2764009 L161.89938,54.2764009 L169.988778,69.4897629 Z M164.201585,63.7952586 L160.315295,56.4407328 L156.407883,63.7952586 L164.201585,63.7952586 Z M192.347804,54.2764009 L184.110558,69.4897629 L181.195841,69.4897629 L172.958595,54.2764009 L175.788828,54.2764009 L182.653199,66.9682112 L189.517571,54.2764009 L192.347804,54.2764009 Z M217.642669,61.862069 C217.642669,64.3556159 216.614784,66.3728371 214.558982,67.9137931 C212.756636,69.2586274 210.517817,69.9310345 207.842459,69.9310345 C205.138939,69.9310345 202.886039,69.2516232 201.083693,67.8927802 C199.027891,66.3518242 198.000006,64.3416072 198.000006,61.862069 C198.000006,59.4245568 199.041972,57.4213441 201.125935,55.8523707 C202.956443,54.479519 205.195262,53.7931034 207.842459,53.7931034 C210.503736,53.7931034 212.735515,54.479519 214.537861,55.8523707 C216.607744,57.4213441 217.642669,59.4245568 217.642669,61.862069 Z M215.002526,61.862069 C215.002526,60.0829652 214.242173,58.6400917 212.721443,57.5334052 C211.411925,56.5808142 209.785614,56.1045259 207.842459,56.1045259 C205.716253,56.1045259 203.984337,56.6473545 202.646657,57.733028 C201.308978,58.8187015 200.640149,60.1950348 200.640149,61.862069 C200.640149,63.5851379 201.294898,64.9754796 202.604415,66.0331358 C203.913933,67.0907919 205.65993,67.6196121 207.842459,67.6196121 C210.010907,67.6196121 211.746344,67.0872898 213.048821,66.0226293 C214.351298,64.9579688 215.002526,63.5711292 215.002526,61.862069 Z M244.078076,57.7435345 L241.775871,58.5630388 C240.22698,56.924022 238.058564,56.1045259 235.270559,56.1045259 C233.158434,56.1045259 231.437078,56.6438524 230.10644,57.7225216 C228.775801,58.8011907 228.110492,60.1740218 228.110492,61.841056 C228.110492,63.564125 228.768761,64.9544667 230.085319,66.0121228 C231.401876,67.069779 233.179555,67.5985991 235.418407,67.5985991 C238.121927,67.5985991 240.248101,66.7650945 241.796993,65.0980603 L243.97247,66.2957974 C242.874165,67.5705883 241.631551,68.4916459 240.244589,69.0589978 C238.857627,69.6263498 237.199633,69.9100216 235.270559,69.9100216 C232.567039,69.9100216 230.32118,69.2376145 228.532914,67.8927802 C226.491194,66.3518242 225.470349,64.334603 225.470349,61.841056 C225.470349,59.3895352 226.505274,57.3863224 228.575157,55.8313578 C230.377503,54.4725148 232.609282,53.7931034 235.270559,53.7931034 C239.100546,53.7931034 242.036355,55.1099006 244.078076,57.7435345 Z M269.246214,69.4897629 L266.479344,69.4897629 L264.705168,66.0856681 L254.419171,66.0856681 L252.644995,69.4897629 L249.878126,69.4897629 L257.967524,54.2764009 L261.156816,54.2764009 L269.246214,69.4897629 Z M263.459021,63.7952586 L259.57273,56.4407328 L255.665319,63.7952586 L263.459021,63.7952586 Z M288.880613,56.5668103 L281.572697,56.5668103 L281.572697,69.4897629 L279.03816,69.4897629 L279.03816,56.5668103 L271.730244,56.5668103 L271.730244,54.2764009 L288.880613,54.2764009 L288.880613,56.5668103 Z M309.528826,57.8485991 C307.261812,56.6998865 304.95259,56.1255388 302.601091,56.1255388 C301.038119,56.1255388 299.841266,56.307649 299.010497,56.671875 C298.179728,57.036101 297.764349,57.5404063 297.764349,58.184806 C297.764349,58.8572232 298.207889,59.34752 299.094981,59.6557112 C299.728619,59.8798503 300.763544,60.0339435 302.199789,60.1179957 C304.311914,60.2580826 305.705896,60.3701504 306.381776,60.4542026 C308.296769,60.706359 309.711872,61.1756431 310.627126,61.862069 C311.54238,62.5484948 312,63.5220842 312,64.7828664 C312,66.3938658 311.281888,67.6406206 309.845643,68.5231681 C308.409398,69.4057156 306.346587,69.8469828 303.657148,69.8469828 C299.756758,69.8469828 296.722384,68.9924654 294.553935,67.2834052 L295.947931,65.4552802 C298.341672,66.912184 300.918426,67.640625 303.678269,67.640625 C305.466535,67.640625 306.853476,67.3954766 307.839135,66.9051724 C308.782551,66.4288769 309.254251,65.7774826 309.254251,64.9509698 C309.254251,63.9843702 308.634704,63.3399801 307.395591,63.0177802 C306.747872,62.8496759 305.001875,62.6745699 302.157547,62.4924569 C299.637078,62.3243526 297.86996,61.9881491 296.85614,61.4838362 C295.67335,60.8954712 295.081964,59.9078733 295.081964,58.5210129 C295.081964,57.0921265 295.754314,55.9644438 297.099033,55.137931 C298.443753,54.3114183 300.341117,53.8981681 302.791181,53.8981681 C306.086096,53.8981681 308.845898,54.6476218 311.07067,56.1465517 L309.528826,57.8485991 Z" id="AVOCATS" fill="#33545C"></path>
            </g>
        </g>
    </g>
</svg>